<svg width="41" height="60" viewBox="0 0 41 60" fill="none" xmlns="http://www.w3.org/2000/svg">
<path d="M10.25 60.0001C15.9233 60.0001 20.5 55.5349 20.5 50.0001V40.0001H10.25C4.57674 40.0001 0 44.4652 0 50.0001C0 55.5349 4.57674 60.0001 10.25 60.0001Z" fill="#0ACF83"/>
<path d="M0 29.9999C0 24.4651 4.57674 19.9999 10.25 19.9999H20.5V39.9999H10.25C4.57674 39.9999 0 35.5348 0 29.9999Z" fill="#A259FF"/>
<path d="M0 10C0 4.46512 4.57674 0 10.25 0H20.5V20H10.25C4.57674 20 0 15.5349 0 10Z" fill="#F24E1E"/>
<path d="M20.5 0H30.75C36.4233 0 41 4.46512 41 10C41 15.5349 36.4233 20 30.75 20H20.5V0Z" fill="#FF7262"/>
<path d="M41 29.9999C41 35.5348 36.4233 39.9999 30.75 39.9999C25.0767 39.9999 20.5 35.5348 20.5 29.9999C20.5 24.4651 25.0767 19.9999 30.75 19.9999C36.4233 19.9999 41 24.4651 41 29.9999Z" fill="#1ABCFE"/>
</svg>
