<svg width="65" height="60" viewBox="0 0 65 60" fill="none" xmlns="http://www.w3.org/2000/svg">
<path d="M14.1818 1.97545L32.5 0L50.8181 1.97545L65 21.3951L32.5 60L0 21.3951L14.1818 1.97545Z" fill="#FDB300"/>
<path d="M13.1641 21.3951L32.5 60.0001L0 21.3951H13.1641Z" fill="#EA6C00"/>
<path d="M51.8358 21.3951L32.4999 60.0001L64.9999 21.3951H51.8358Z" fill="#EA6C00"/>
<path d="M13.1641 21.3951H51.8359L32.5 60.0001L13.1641 21.3951Z" fill="#FDAD00"/>
<path d="M32.5 0L14.1818 1.97542L13.1641 21.3951L32.5 0Z" fill="#FDD231"/>
<path d="M32.4999 0L50.8182 1.97542L51.8358 21.3951L32.4999 0Z" fill="#FDD231"/>
<path d="M65 21.3951L50.8181 1.97546L51.8359 21.3951H65Z" fill="#FDAD00"/>
<path d="M0 21.3951L14.1818 1.97546L13.1641 21.3951H0Z" fill="#FDAD00"/>
<path d="M32.5 0L13.1641 21.3951H51.8359L32.5 0Z" fill="#FEEEB7"/>
</svg>
